<svg width="24" height="24" viewBox="0 0 24 24" fill="none" xmlns="http://www.w3.org/2000/svg">
<path d="M10.1818 20.6366C10.1818 21.1387 9.77482 21.5457 9.27274 21.5457C8.77066 21.5457 8.36365 21.1387 8.36365 20.6366C8.36365 20.1346 8.77066 19.7275 9.27274 19.7275C9.77482 19.7275 10.1818 20.1346 10.1818 20.6366Z" fill="#393A3B"/>
<path fill-rule="evenodd" clip-rule="evenodd" d="M9.27274 20.7275C9.32295 20.7275 9.36365 20.6868 9.36365 20.6366C9.36365 20.5864 9.32295 20.5457 9.27274 20.5457C9.22253 20.5457 9.18183 20.5864 9.18183 20.6366C9.18183 20.6868 9.22253 20.7275 9.27274 20.7275ZM7.36365 20.6366C7.36365 19.5823 8.21838 18.7275 9.27274 18.7275C10.3271 18.7275 11.1818 19.5823 11.1818 20.6366C11.1818 21.691 10.3271 22.5457 9.27274 22.5457C8.21838 22.5457 7.36365 21.691 7.36365 20.6366Z" fill="#393A3B"/>
<path d="M20.1818 20.6366C20.1818 21.1387 19.7748 21.5457 19.2727 21.5457C18.7707 21.5457 18.3636 21.1387 18.3636 20.6366C18.3636 20.1346 18.7707 19.7275 19.2727 19.7275C19.7748 19.7275 20.1818 20.1346 20.1818 20.6366Z" fill="#393A3B"/>
<path fill-rule="evenodd" clip-rule="evenodd" d="M19.2727 20.7275C19.3229 20.7275 19.3636 20.6868 19.3636 20.6366C19.3636 20.5864 19.3229 20.5457 19.2727 20.5457C19.2225 20.5457 19.1818 20.5864 19.1818 20.6366C19.1818 20.6868 19.2225 20.7275 19.2727 20.7275ZM17.3636 20.6366C17.3636 19.5823 18.2184 18.7275 19.2727 18.7275C20.3271 18.7275 21.1818 19.5823 21.1818 20.6366C21.1818 21.691 20.3271 22.5457 19.2727 22.5457C18.2184 22.5457 17.3636 21.691 17.3636 20.6366Z" fill="#393A3B"/>
<path fill-rule="evenodd" clip-rule="evenodd" d="M1 2.45459C1 1.90231 1.44772 1.45459 2 1.45459H5.63636C6.11299 1.45459 6.52338 1.79098 6.61692 2.25833L7.36582 6.00004H22C22.298 6.00004 22.5805 6.13297 22.7705 6.3626C22.9605 6.59223 23.0381 6.89462 22.9823 7.18737L21.5263 14.8221C21.2611 16.1576 20.0791 17.112 18.7187 17.091H9.89949C8.53928 17.112 7.35752 16.1579 7.09201 14.8228C7.09197 14.8226 7.09205 14.823 7.09201 14.8228L5.57387 7.23772C5.56738 7.21111 5.56196 7.18408 5.55765 7.15668L4.81668 3.45459H2C1.44772 3.45459 1 3.00687 1 2.45459ZM7.76612 8.00004L9.05357 14.4325C9.13078 14.8212 9.4755 15.0987 9.87175 15.0911L9.89091 15.091H18.7273L18.7464 15.0911C19.1417 15.0987 19.4856 14.8226 19.564 14.4355C19.5642 14.4345 19.5644 14.4335 19.5646 14.4325L20.7913 8.00004H7.76612Z" fill="#393A3B"/>
</svg>
